<?xml version="1.0" encoding="UTF-8" standalone="no"?>
<svg
   xmlns:dc="http://purl.org/dc/elements/1.1/"
   xmlns:cc="http://creativecommons.org/ns#"
   xmlns:rdf="http://www.w3.org/1999/02/22-rdf-syntax-ns#"
   xmlns:svg="http://www.w3.org/2000/svg"
   xmlns="http://www.w3.org/2000/svg"
   xmlns:sodipodi="http://sodipodi.sourceforge.net/DTD/sodipodi-0.dtd"
   xmlns:inkscape="http://www.inkscape.org/namespaces/inkscape"
   version="1.1"
   viewbox="0 0 100 100"
   width="206.53044"
   height="28.089399"
   id="svg75"
   sodipodi:docname="loading.svg"
   inkscape:version="0.92.3 (2405546, 2018-03-11)">
  <metadata
     id="metadata81">
    <rdf:RDF>
      <cc:Work
         rdf:about="">
        <dc:format>image/svg+xml</dc:format>
        <dc:type
           rdf:resource="http://purl.org/dc/dcmitype/StillImage" />
        <dc:title></dc:title>
      </cc:Work>
    </rdf:RDF>
  </metadata>
  <defs
     id="defs79" />
  <sodipodi:namedview
     pagecolor="#ffffff"
     bordercolor="#666666"
     borderopacity="1"
     objecttolerance="10"
     gridtolerance="10"
     guidetolerance="10"
     inkscape:pageopacity="0"
     inkscape:pageshadow="2"
     inkscape:window-width="1920"
     inkscape:window-height="1056"
     id="namedview77"
     showgrid="false"
     fit-margin-top="0"
     fit-margin-left="0"
     fit-margin-right="0"
     fit-margin-bottom="0"
     inkscape:zoom="2.8284271"
     inkscape:cx="36.869641"
     inkscape:cy="22.791325"
     inkscape:window-x="0"
     inkscape:window-y="24"
     inkscape:window-maximized="1"
     inkscape:current-layer="svg75" />
  <g
     id="Layer_1"
     transform="translate(-5.6888,-5.0948)">
    <g
       id="g72">
      <g
         id="g70">
        <path
           stroke-miterlimit="10"
           d="m 17.879,6.44 v 19.011 h 9.847 v 6.37 H 6.635 V 6.44 Z"
           id="path56"
           inkscape:connector-curvature="0"
           style="fill:#ffffff;stroke:#be1e2d;stroke-width:1.89240003;stroke-miterlimit:10" />
        <path
           stroke-miterlimit="10"
           d="m 45.067,6.041 c 2.395,0 4.596,0.588 6.603,1.763 2.007,1.176 3.576,2.761 4.707,4.757 1.142,1.985 1.713,4.169 1.713,6.553 0,2.373 -0.571,4.569 -1.713,6.587 -1.131,2.018 -2.7,3.615 -4.707,4.79 -2.019,1.164 -4.219,1.747 -6.603,1.747 -2.384,0 -4.58,-0.583 -6.587,-1.747 -1.985,-1.153 -3.554,-2.745 -4.707,-4.773 -1.142,-2.018 -1.713,-4.219 -1.713,-6.604 0,-2.328 0.56,-4.501 1.68,-6.52 1.12,-1.996 2.689,-3.587 4.707,-4.774 2.018,-1.185 4.224,-1.779 6.62,-1.779 z m -2.512,12.392 c 0,0.798 0.238,1.441 0.715,1.929 0.488,0.488 1.086,0.732 1.796,0.732 0.709,0 1.308,-0.244 1.796,-0.732 0.488,-0.51 0.732,-1.153 0.732,-1.929 0,-0.388 -0.064,-0.746 -0.191,-1.073 -0.128,-0.327 -0.302,-0.607 -0.524,-0.84 -0.222,-0.233 -0.49,-0.416 -0.807,-0.549 -0.316,-0.133 -0.657,-0.199 -1.022,-0.199 -0.71,0 -1.303,0.25 -1.78,0.749 -0.477,0.487 -0.715,1.125 -0.715,1.912 z"
           id="path58"
           inkscape:connector-curvature="0"
           style="fill:#ffffff;stroke:#be1e2d;stroke-width:1.89240003;stroke-miterlimit:10" />
        <path
           stroke-miterlimit="10"
           d="m 87.041,6.44 8.815,25.381 H 84.629 L 83.165,27.53 h -8.25 l -1.464,4.291 H 62.208 L 71.023,6.44 Z m -10.08,15.103 h 4.158 l -2.045,-6.204 h -0.067 z"
           id="path60"
           inkscape:connector-curvature="0"
           style="fill:#ffffff;stroke:#be1e2d;stroke-width:1.89240003;stroke-miterlimit:10" />
        <path
           stroke-miterlimit="10"
           d="m 113.68,6.44 c 2.705,0 5.117,0.532 7.235,1.597 2.118,1.065 3.759,2.611 4.923,4.641 1.165,2.018 1.747,4.186 1.747,6.503 0,2.362 -0.599,4.546 -1.797,6.553 -1.175,1.985 -2.844,3.499 -5.006,4.541 -2.151,1.031 -4.603,1.547 -7.352,1.547 H 100.989 V 6.44 Z m -1.464,15.668 h 0.3 c 1.353,0 2.328,-0.235 2.927,-0.707 0.6,-0.471 0.898,-1.245 0.898,-2.32 0,-0.942 -0.285,-1.666 -0.856,-2.17 -0.571,-0.504 -1.444,-0.757 -2.619,-0.757 h -0.649 v 5.954 z"
           id="path62"
           inkscape:connector-curvature="0"
           style="fill:#ffffff;stroke:#be1e2d;stroke-width:1.89240003;stroke-miterlimit:10" />
        <path
           stroke-miterlimit="10"
           d="M 144.941,6.44 V 31.821 H 133.714 V 6.44 Z"
           id="path64"
           inkscape:connector-curvature="0"
           style="fill:#ffffff;stroke:#be1e2d;stroke-width:1.89240003;stroke-miterlimit:10" />
        <path
           stroke-miterlimit="10"
           d="m 160.553,6.44 5.854,8.482 h 0.066 V 6.44 h 11.244 v 25.581 h -8.516 l -5.39,-7.9 h -0.066 v 7.701 H 152.52 V 6.44 Z"
           id="path66"
           inkscape:connector-curvature="0"
           style="fill:#ffffff;stroke:#be1e2d;stroke-width:1.89240003;stroke-miterlimit:10" />
        <path
           stroke-miterlimit="10"
           d="m 198.553,6.041 c 2.096,0 4.258,0.311 6.487,0.932 1.108,0.311 2.147,0.671 3.118,1.081 0.971,0.411 1.871,0.871 2.703,1.38 l -5.423,7.635 c -2.262,-1.087 -4.347,-1.63 -6.254,-1.63 -1.274,0 -2.301,0.333 -3.076,0.998 -0.776,0.643 -1.165,1.514 -1.165,2.611 0,1.076 0.327,1.86 0.981,2.354 0.654,0.494 1.68,0.74 3.077,0.74 v -3.975 h 11.244 v 13.688 l -5.539,0.266 c -0.898,0.044 -1.658,0.075 -2.278,0.091 -0.621,0.017 -1.109,0.025 -1.464,0.025 -3.637,0 -6.604,-0.443 -8.898,-1.331 -2.262,-0.876 -4.103,-2.39 -5.522,-4.541 -1.396,-2.14 -2.096,-4.58 -2.096,-7.318 0,-2.439 0.577,-4.679 1.73,-6.72 1.142,-2.018 2.777,-3.57 4.906,-4.657 2.119,-1.086 4.608,-1.629 7.469,-1.629 z"
           id="path68"
           inkscape:connector-curvature="0"
           style="fill:#ffffff;stroke:#be1e2d;stroke-width:1.89240003;stroke-miterlimit:10" />
      </g>
    </g>
  </g>
</svg>
