<?xml version="1.0" encoding="utf-8"?>
<!-- Generator: Adobe Illustrator 15.0.0, SVG Export Plug-In . SVG Version: 6.00 Build 0)  -->
<!DOCTYPE svg PUBLIC "-//W3C//DTD SVG 1.1//EN" "http://www.w3.org/Graphics/SVG/1.1/DTD/svg11.dtd">
<svg version="1.1" xmlns="http://www.w3.org/2000/svg" xmlns:xlink="http://www.w3.org/1999/xlink" x="0px" y="0px" width="216px"
	 height="216px" viewBox="0 0 216 216" enable-background="new 0 0 216 216" xml:space="preserve">
<g id="Layer_1" display="none">
	<g display="inline">
		<g>
			<path fill="#FFFFFF" stroke="#BE1E2D" stroke-width="1.8924" stroke-miterlimit="10" d="M17.879,78.44v19.011h9.847v6.37H6.635
				V78.44H17.879z"/>
			<path fill="#FFFFFF" stroke="#BE1E2D" stroke-width="1.8924" stroke-miterlimit="10" d="M45.067,78.041
				c2.395,0,4.596,0.588,6.603,1.763c2.007,1.176,3.576,2.761,4.707,4.757c1.142,1.985,1.713,4.169,1.713,6.553
				c0,2.373-0.571,4.569-1.713,6.587c-1.131,2.018-2.7,3.615-4.707,4.79c-2.019,1.164-4.219,1.747-6.603,1.747
				c-2.384,0-4.58-0.583-6.587-1.747c-1.985-1.153-3.554-2.745-4.707-4.773c-1.142-2.018-1.713-4.219-1.713-6.604
				c0-2.328,0.56-4.501,1.68-6.52c1.12-1.996,2.689-3.587,4.707-4.774C40.465,78.635,42.671,78.041,45.067,78.041z M42.555,90.433
				c0,0.798,0.238,1.441,0.715,1.929c0.488,0.488,1.086,0.732,1.796,0.732c0.709,0,1.308-0.244,1.796-0.732
				c0.488-0.51,0.732-1.153,0.732-1.929c0-0.388-0.064-0.746-0.191-1.073c-0.128-0.327-0.302-0.607-0.524-0.84
				c-0.222-0.233-0.49-0.416-0.807-0.549c-0.316-0.133-0.657-0.199-1.022-0.199c-0.71,0-1.303,0.25-1.78,0.749
				C42.793,89.008,42.555,89.646,42.555,90.433z"/>
			<path fill="#FFFFFF" stroke="#BE1E2D" stroke-width="1.8924" stroke-miterlimit="10" d="M87.041,78.44l8.815,25.381H84.629
				l-1.464-4.291h-8.25l-1.464,4.291H62.208l8.815-25.381H87.041z M76.961,93.543h4.158l-2.045-6.204h-0.067L76.961,93.543z"/>
			<path fill="#FFFFFF" stroke="#BE1E2D" stroke-width="1.8924" stroke-miterlimit="10" d="M113.68,78.44
				c2.705,0,5.117,0.532,7.235,1.597s3.759,2.611,4.923,4.641c1.165,2.018,1.747,4.186,1.747,6.503c0,2.362-0.599,4.546-1.797,6.553
				c-1.175,1.985-2.844,3.499-5.006,4.541c-2.151,1.031-4.603,1.547-7.352,1.547h-12.441V78.44H113.68z M112.216,94.108h0.3
				c1.353,0,2.328-0.235,2.927-0.707c0.6-0.471,0.898-1.245,0.898-2.32c0-0.942-0.285-1.666-0.856-2.17
				c-0.571-0.504-1.444-0.757-2.619-0.757h-0.649V94.108z"/>
			<path fill="#FFFFFF" stroke="#BE1E2D" stroke-width="1.8924" stroke-miterlimit="10" d="M144.941,78.44v25.381h-11.227V78.44
				H144.941z"/>
			<path fill="#FFFFFF" stroke="#BE1E2D" stroke-width="1.8924" stroke-miterlimit="10" d="M160.553,78.44l5.854,8.482h0.066V78.44
				h11.244v25.581h-8.516l-5.39-7.9h-0.066v7.701H152.52V78.44H160.553z"/>
			<path fill="#FFFFFF" stroke="#BE1E2D" stroke-width="1.8924" stroke-miterlimit="10" d="M198.553,78.041
				c2.096,0,4.258,0.311,6.487,0.932c1.108,0.311,2.147,0.671,3.118,1.081c0.971,0.411,1.871,0.871,2.703,1.38l-5.423,7.635
				c-2.262-1.087-4.347-1.63-6.254-1.63c-1.274,0-2.301,0.333-3.076,0.998c-0.776,0.643-1.165,1.514-1.165,2.611
				c0,1.076,0.327,1.86,0.981,2.354c0.654,0.494,1.68,0.74,3.077,0.74v-3.975h11.244v13.688l-5.539,0.266
				c-0.898,0.044-1.658,0.075-2.278,0.091c-0.621,0.017-1.109,0.025-1.464,0.025c-3.637,0-6.604-0.443-8.898-1.331
				c-2.262-0.876-4.103-2.39-5.522-4.541c-1.396-2.14-2.096-4.58-2.096-7.318c0-2.439,0.577-4.679,1.73-6.72
				c1.142-2.018,2.777-3.57,4.906-4.657C193.203,78.584,195.692,78.041,198.553,78.041z"/>
		</g>
		<g>
			<g>
				<rect x="4.53" y="112.099" fill="#BE1E2D" width="25.457" height="25.458"/>
			</g>
			<g>
				<rect x="34.717" y="112.099" fill="#BE1E2D" width="25.456" height="25.458"/>
			</g>
			<g>
				<rect x="64.904" y="112.099" fill="#BE1E2D" width="25.457" height="25.458"/>
			</g>
			<g>
				<rect x="95.092" y="112.099" fill="#BE1E2D" width="25.457" height="25.458"/>
			</g>
			<g>
				<path fill="#BE1E2D" d="M147.31,115.884v17.888h-17.885v-17.888H147.31 M151.095,112.099H125.64v25.458h25.455V112.099
					L151.095,112.099z"/>
			</g>
			<g>
				<path fill="#BE1E2D" d="M177.498,115.884v17.888h-17.887v-17.888H177.498 M181.283,112.099h-25.457v25.458h25.457V112.099
					L181.283,112.099z"/>
			</g>
			<g>
				<path fill="#BE1E2D" d="M207.687,115.884v17.888H189.8v-17.888H207.687 M211.472,112.099h-25.457v25.458h25.457V112.099
					L211.472,112.099z"/>
			</g>
		</g>
	</g>
	<g>
		<g display="inline">
			<path fill="#FFFFFF" d="M108,213.185C50.001,213.185,2.816,165.999,2.816,108C2.816,50.001,50.001,2.816,108,2.816
				c57.999,0,105.185,47.186,105.185,105.184C213.185,165.999,165.999,213.185,108,213.185z"/>
			<path fill="#BE1E2D" d="M108,5.21c56.679,0,102.79,46.111,102.79,102.79S164.679,210.79,108,210.79S5.21,164.679,5.21,108
				S51.321,5.21,108,5.21 M108,0.422C48.586,0.422,0.422,48.587,0.422,108c0,59.414,48.164,107.578,107.578,107.578
				S215.578,167.414,215.578,108C215.578,48.587,167.414,0.422,108,0.422L108,0.422z"/>
		</g>
		<g display="inline">
			<defs>
				<circle id="SVGID_1_" cx="108" cy="108" r="97.379"/>
			</defs>
			<clipPath id="SVGID_2_">
				<use xlink:href="#SVGID_1_"  overflow="visible"/>
			</clipPath>
			<g clip-path="url(#SVGID_2_)">
				<g>
					<rect x="18.389" y="17.973" fill="#BE1E2D" width="179.222" height="179.221"/>
				</g>
				<g>
					<polygon fill="#BE1E2D" points="204.938,10.646 197.61,10.646 18.388,10.646 11.061,10.646 11.061,17.973 11.062,197.193 
						11.062,204.521 18.389,204.521 197.61,204.521 204.938,204.521 204.938,197.193 204.938,17.973 204.938,10.646 					"/>
				</g>
				<g>
					<path fill="none" stroke="#FFFFFF" stroke-width="5.4952" stroke-miterlimit="10" d="M158.482,74.125
						c0,22.57-100.963,22.57-100.963,0c0-22.571,22.602-40.867,50.482-40.867S158.482,51.554,158.482,74.125z"/>
					<path fill="none" stroke="#FFFFFF" stroke-width="5.4952" stroke-miterlimit="10" d="M57.519,74.109
						c0-22.569,100.963-22.569,100.963,0"/>
				</g>
				<rect x="3.112" y="98.142" fill="none" width="209.777" height="77.549"/>
				<text transform="matrix(1 0 0 1 39.0903 125.4346)"><tspan x="0" y="0" fill="#FFFFFF" font-family="'GillSans-UltraBold'" font-size="36.6346" letter-spacing="2">A</tspan><tspan x="39.024" y="0" fill="#FFFFFF" font-family="'GillSans-UltraBold'" font-size="36.6346" letter-spacing="1">P</tspan><tspan x="71.374" y="0" fill="#FFFFFF" font-family="'GillSans-UltraBold'" font-size="36.6346" letter-spacing="2">P</tspan><tspan x="104.638" y="0" fill="#FFFFFF" font-family="'GillSans-UltraBold'" font-size="36.6346" letter-spacing="1">Y</tspan><tspan x="2.336" y="35.902" fill="#FFFFFF" font-family="'GillSans-UltraBold'" font-size="36.6346" letter-spacing="1">M</tspan><tspan x="42.699" y="35.902" fill="#FFFFFF" font-family="'GillSans-UltraBold'" font-size="36.6346" letter-spacing="2">E</tspan><tspan x="71.795" y="35.902" fill="#FFFFFF" font-family="'GillSans-UltraBold'" font-size="36.6346" letter-spacing="1">AL</tspan></text>
				<path fill="none" stroke="#FFFFFF" stroke-width="5.4952" stroke-miterlimit="10" d="M157.801,139.6
					c19.447,5.089,31.986,13.088,31.986,22.085c0,15.376-36.607,27.838-81.763,27.838c-45.157,0-81.762-12.462-81.762-27.838
					c0-7.298,8.25-13.939,21.747-18.905"/>
				<path fill="none" stroke="#FFFFFF" stroke-width="4.3962" stroke-miterlimit="10" d="M117.442,33.972
					c1.891-0.269,4.427-0.714,4.427-1.916c0-0.357,0-4.489,0-4.899c0-2.101-7.433-2.101-13.87-2.101c-6.437,0-13.87,0-13.87,2.101
					c0,0.41,0,4.542,0,4.899c0,1.202,2.536,1.647,4.427,1.916"/>
			</g>
		</g>
	</g>
</g>
<g id="Layer_2">
	<g>
		<path fill="#FFFFFF" d="M108,213.553C49.798,213.553,2.447,166.202,2.447,108S49.798,2.447,108,2.447S213.553,49.798,213.553,108
			S166.202,213.553,108,213.553z"/>
		<path fill="#BE1E2D" d="M108,4.85c56.877,0,103.15,46.273,103.15,103.15c0,56.877-46.273,103.15-103.15,103.15
			C51.123,211.15,4.85,164.877,4.85,108C4.85,51.123,51.123,4.85,108,4.85 M108,0.045C48.378,0.045,0.045,48.379,0.045,108
			c0,59.622,48.333,107.955,107.955,107.955S215.955,167.622,215.955,108C215.955,48.379,167.622,0.045,108,0.045L108,0.045z"/>
	</g>
	<circle fill="#BE1E2D" cx="108" cy="108" r="97.72"/>
	<g>
		<g>
			<path fill="none" stroke="#FFFFFF" stroke-width="5.5144" stroke-miterlimit="10" d="M158.66,74.719
				c0,22.649-101.316,22.649-101.316,0s22.681-41.01,50.658-41.01S158.66,52.07,158.66,74.719z"/>
			<path fill="none" stroke="#FFFFFF" stroke-width="5.5144" stroke-miterlimit="10" d="M57.344,74.704
				c0-22.649,101.316-22.649,101.316,0"/>
		</g>
		<g>
			<path fill="#FFFFFF" d="M65.685,98.816l9.514,27.393H63.083l-1.58-4.631h-8.904l-1.58,4.631H38.885l9.514-27.393H65.685z
				 M54.807,115.115h4.488l-2.208-6.695h-0.072L54.807,115.115z"/>
			<path fill="#FFFFFF" d="M108.275,108.079c0,1.687-0.413,3.237-1.238,4.649c-0.838,1.436-1.951,2.555-3.339,3.356
				c-1.413,0.813-2.926,1.221-4.542,1.221c-1.089,0-2.118-0.18-3.088-0.539c-0.981-0.383-2.04-0.999-3.177-1.849v11.291H80.774
				V98.816h16.802c0.993,0,1.944,0.087,2.854,0.26c0.909,0.174,1.762,0.44,2.558,0.799c0.795,0.359,1.52,0.811,2.172,1.355
				c0.652,0.545,1.211,1.182,1.678,1.912C107.796,104.626,108.275,106.272,108.275,108.079z M92.891,110.699
				c0.359,0.097,0.694,0.144,1.005,0.144c0.443,0,0.853-0.074,1.229-0.224s0.7-0.359,0.97-0.629c0.269-0.27,0.479-0.598,0.628-0.986
				c0.149-0.389,0.225-0.817,0.225-1.284c0-0.933-0.242-1.663-0.727-2.19c-0.485-0.526-1.158-0.79-2.02-0.79h-1.311V110.699z"/>
			<path fill="#FFFFFF" d="M140.736,108.079c0,1.687-0.412,3.237-1.238,4.649c-0.838,1.436-1.951,2.555-3.338,3.356
				c-1.412,0.813-2.926,1.221-4.543,1.221c-1.088,0-2.117-0.18-3.086-0.539c-0.982-0.383-2.041-0.999-3.178-1.849v11.291h-12.117
				V98.816h16.803c0.992,0,1.943,0.087,2.854,0.26c0.91,0.174,1.762,0.44,2.559,0.799c0.795,0.359,1.52,0.811,2.172,1.355
				c0.652,0.545,1.211,1.182,1.678,1.912C140.258,104.626,140.736,106.272,140.736,108.079z M125.354,110.699
				c0.359,0.097,0.693,0.144,1.006,0.144c0.441,0,0.852-0.074,1.229-0.224s0.701-0.359,0.969-0.629
				c0.27-0.27,0.479-0.598,0.629-0.986c0.15-0.389,0.225-0.817,0.225-1.284c0-0.933-0.242-1.663-0.727-2.19
				c-0.484-0.526-1.158-0.79-2.02-0.79h-1.311V110.699z"/>
			<path fill="#FFFFFF" d="M156.275,98.816l4.236,6.211l4.219-6.211h12.277l-10.43,15.438v11.955h-12.135v-11.955l-10.447-15.438
				H156.275z"/>
			<path fill="#FFFFFF" d="M55.572,134.845l4.955,5.708l4.972-5.708h11.758v27.393H65.122v-13.714l-4.595,5.295l-4.596-5.295v13.714
				H43.796v-27.393H55.572z"/>
			<path fill="#FFFFFF" d="M107.133,134.845v6.875H96.506v3.393h7.396v6.875h-7.396v3.375h10.627v6.875H84.39v-27.393H107.133z"/>
			<path fill="#FFFFFF" d="M137.732,134.845l9.514,27.393h-12.117l-1.58-4.631h-8.902l-1.58,4.631h-12.135l9.514-27.393H137.732z
				 M126.854,151.144h4.488l-2.207-6.695h-0.072L126.854,151.144z"/>
			<path fill="#FFFFFF" d="M163.912,134.845v20.518h10.627v6.875h-22.762v-27.393H163.912z"/>
		</g>
		<path fill="none" stroke="#FFFFFF" stroke-width="5.5144" stroke-miterlimit="10" d="M157.975,140.423
			c19.518,5.107,32.098,13.134,32.098,22.163c0,15.428-36.734,27.936-82.048,27.936c-45.314,0-82.049-12.508-82.049-27.936
			c0-7.324,8.279-13.989,21.824-18.973"/>
		<path fill="none" stroke="#FFFFFF" stroke-width="4.4115" stroke-miterlimit="10" d="M117.475,34.426
			c1.9-0.27,4.443-0.717,4.443-1.923c0-0.358,0-4.504,0-4.917c0-2.107-7.459-2.107-13.918-2.107s-13.918,0-13.918,2.107
			c0,0.413,0,4.559,0,4.917c0,1.206,2.545,1.653,4.443,1.923"/>
	</g>
</g>
</svg>
